<?xml version="1.0" standalone="no"?><!-- Generator: Gravit.io --><svg xmlns="http://www.w3.org/2000/svg" xmlns:xlink="http://www.w3.org/1999/xlink" style="isolation:isolate" viewBox="257.709 211.188 459.137 364.609" width="459.137" height="364.609"><g id="Group"><rect x="257.709" y="211.188" width="459.137" height="364.609" transform="matrix(1,0,0,1,0,0)" fill="rgb(91,70,84)"/><g id="g4666"><path d=" M 379.333 314.646 C 379.333 314.646 297.807 334.146 296.148 349.831 C 296.148 349.831 300.136 390.966 347.833 385.219 C 347.833 385.219 373.697 420.493 392.642 403.693 C 392.642 403.693 421.74 337.281 379.333 314.646 Z " fill-rule="evenodd" fill="rgb(115,83,94)"/><path d=" M 308.579 284.025 C 313.436 270.743 325.13 262.796 334.676 266.287 C 344.222 269.778 348.028 283.396 343.17 296.677 C 338.313 309.958 326.619 317.906 317.073 314.414 C 307.527 310.923 303.721 297.306 308.579 284.025 Z " fill="rgb(115,83,94)"/><path d=" M 365.04 268.332 C 368.499 256.235 378.366 248.431 387.061 250.917 C 395.756 253.403 400.007 265.243 396.548 277.34 C 393.09 289.437 383.223 297.24 374.528 294.755 C 365.833 292.269 361.582 280.429 365.04 268.332 Z " fill="rgb(115,83,94)"/><path d=" M 417.664 290.036 C 426.344 280.928 438.706 278.597 445.253 284.836 C 451.799 291.074 450.068 303.534 441.388 312.643 C 432.708 321.752 420.346 324.082 413.799 317.843 C 407.253 311.605 408.984 299.145 417.664 290.036 Z " fill="rgb(115,83,94)"/><path d=" M 456.351 369.341 C 465.424 358.494 466.461 344.393 458.664 337.872 C 450.867 331.35 437.172 334.863 428.099 345.71 C 419.026 356.557 417.989 370.659 425.786 377.18 C 433.583 383.701 447.278 380.189 456.351 369.341 Z " fill="rgb(115,83,94)"/></g><g id="g4678"><path d=" M 344.185 471.946 C 344.185 471.946 302.656 481.879 301.811 489.868 C 301.811 489.868 303.843 510.822 328.139 507.895 C 328.139 507.895 341.314 525.862 350.964 517.305 C 350.964 517.305 365.786 483.475 344.185 471.946 Z " fill-rule="evenodd" fill="rgb(115,83,94)"/><path d=" M 308.144 456.347 C 310.618 449.582 316.575 445.534 321.437 447.312 C 326.3 449.091 328.238 456.027 325.764 462.792 C 323.29 469.557 317.333 473.606 312.47 471.828 C 307.608 470.049 305.669 463.113 308.144 456.347 Z " fill="rgb(115,83,94)"/><path d=" M 336.904 448.354 C 338.666 442.192 343.692 438.217 348.121 439.483 C 352.55 440.749 354.716 446.78 352.954 452.942 C 351.192 459.105 346.166 463.079 341.737 461.813 C 337.308 460.547 335.143 454.516 336.904 448.354 Z " fill="rgb(115,83,94)"/><path d=" M 363.71 459.41 C 368.131 454.77 374.428 453.583 377.763 456.761 C 381.098 459.939 380.216 466.286 375.795 470.925 C 371.373 475.565 365.076 476.752 361.742 473.574 C 358.407 470.396 359.289 464.05 363.71 459.41 Z " fill="rgb(115,83,94)"/><path d=" M 383.417 499.807 C 388.039 494.281 388.566 487.098 384.595 483.776 C 380.623 480.455 373.647 482.244 369.025 487.769 C 364.404 493.295 363.876 500.478 367.847 503.799 C 371.819 507.121 378.795 505.332 383.417 499.807 Z " fill="rgb(115,83,94)"/></g><g id="g4690"><path d=" M 644.362 368.111 C 644.362 368.111 602.833 378.044 601.988 386.034 C 601.988 386.034 604.02 406.987 628.316 404.06 C 628.316 404.06 641.491 422.028 651.141 413.47 C 651.141 413.47 665.963 379.641 644.362 368.111 Z " fill-rule="evenodd" fill="rgb(115,83,94)"/><path d=" M 608.321 352.513 C 610.795 345.747 616.752 341.699 621.614 343.477 C 626.477 345.256 628.415 352.192 625.941 358.957 C 623.467 365.723 617.51 369.771 612.647 367.993 C 607.785 366.214 605.846 359.278 608.321 352.513 Z " fill="rgb(115,83,94)"/><path d=" M 637.081 344.519 C 638.843 338.357 643.869 334.382 648.298 335.648 C 652.727 336.915 654.893 342.945 653.131 349.108 C 651.369 355.27 646.343 359.245 641.914 357.978 C 637.485 356.712 635.32 350.681 637.081 344.519 Z " fill="rgb(115,83,94)"/><path d=" M 663.887 355.575 C 668.308 350.935 674.605 349.748 677.94 352.926 C 681.275 356.104 680.393 362.451 675.972 367.091 C 671.55 371.73 665.253 372.917 661.919 369.74 C 658.584 366.562 659.466 360.215 663.887 355.575 Z " fill="rgb(115,83,94)"/><path d=" M 683.594 395.972 C 688.216 390.446 688.743 383.263 684.772 379.942 C 680.8 376.62 673.824 378.409 669.202 383.934 C 664.581 389.46 664.053 396.643 668.024 399.965 C 671.996 403.286 678.972 401.497 683.594 395.972 Z " fill="rgb(115,83,94)"/></g><g id="g4702"><path d=" M 578.285 488.937 C 578.285 488.937 536.757 498.87 535.912 506.86 C 535.912 506.86 537.943 527.813 562.24 524.886 C 562.24 524.886 575.414 542.854 585.065 534.296 C 585.065 534.296 599.887 500.466 578.285 488.937 Z " fill-rule="evenodd" fill="rgb(115,83,94)"/><path d=" M 542.244 473.339 C 544.718 466.573 550.675 462.525 555.537 464.303 C 560.4 466.082 562.339 473.018 559.864 479.783 C 557.39 486.549 551.433 490.597 546.571 488.819 C 541.708 487.04 539.769 480.104 542.244 473.339 Z " fill="rgb(115,83,94)"/><path d=" M 571.005 465.345 C 572.766 459.183 577.793 455.208 582.222 456.474 C 586.651 457.74 588.816 463.771 587.054 469.934 C 585.293 476.096 580.266 480.071 575.837 478.804 C 571.408 477.538 569.243 471.507 571.005 465.345 Z " fill="rgb(115,83,94)"/><path d=" M 597.81 476.401 C 602.232 471.761 608.529 470.574 611.864 473.752 C 615.198 476.93 614.316 483.277 609.895 487.917 C 605.474 492.556 599.177 493.743 595.842 490.565 C 592.507 487.388 593.389 481.041 597.81 476.401 Z " fill="rgb(115,83,94)"/><path d=" M 617.517 516.798 C 622.139 511.272 622.667 504.089 618.695 500.767 C 614.724 497.446 607.747 499.235 603.126 504.76 C 598.504 510.286 597.976 517.469 601.948 520.791 C 605.919 524.112 612.896 522.323 617.517 516.798 Z " fill="rgb(115,83,94)"/></g></g></svg>